<svg xmlns="http://www.w3.org/2000/svg" viewBox="0 0 300 250"><defs><style>.cls-1{fill:none;opacity:0.63;}.cls-2{fill:#fff;}</style></defs><title>dominate_1</title><g id="Layer_2" data-name="Layer 2"><g id="_300x250" data-name="300x250"><rect class="cls-1" width="300" height="250"/><path class="cls-2" d="M80.29,83.31H78.56v5.23h1.73a2.62,2.62,0,0,0,0-5.23Zm-1.05.63h1c1.18,0,1.82.7,1.82,2s-.65,2-1.82,2h-1Z"/><path class="cls-2" d="M91.2,83.23a2.71,2.71,0,1,0,2.38,2.69A2.39,2.39,0,0,0,91.2,83.23Zm1.7,2.69c0,1.26-.65,2-1.7,2s-1.69-.78-1.69-2,.65-2.05,1.69-2.05S92.9,84.66,92.9,85.92Z"/><polygon class="cls-2" points="102.36 87.57 100.55 83.31 99.83 83.31 99.83 88.53 100.48 88.53 100.48 84.75 102.05 88.45 102.08 88.51 102.63 88.51 104.23 84.75 104.23 88.53 104.88 88.53 104.88 83.31 104.16 83.31 102.36 87.57"/><rect class="cls-2" x="111.33" y="83.31" width="0.68" height="5.23"/><polygon class="cls-2" points="121.89 87.32 119.11 83.35 119.08 83.31 118.45 83.31 118.45 88.53 119.12 88.53 119.12 84.52 121.95 88.53 122.56 88.53 122.56 83.31 121.89 83.31 121.89 87.32"/><path class="cls-2" d="M130.54,83.31l-2,5.23h.72l.56-1.54h2l.56,1.54h.72l-2-5.23Zm1.08,3.07h-1.54l.77-2.12Z"/><polygon class="cls-2" points="138.07 83.94 139.73 83.94 139.73 88.53 140.41 88.53 140.41 83.94 142.07 83.94 142.07 83.31 138.07 83.31 138.07 83.94"/><polygon class="cls-2" points="148.18 88.53 151.42 88.53 151.42 87.9 148.86 87.9 148.86 86.17 151.29 86.17 151.29 85.55 148.86 85.55 148.86 83.94 151.42 83.94 151.42 83.31 148.18 83.31 148.18 88.53"/><polygon class="cls-2" points="164.57 83.94 166.23 83.94 166.23 88.53 166.9 88.53 166.9 83.94 168.56 83.94 168.56 83.31 164.57 83.31 164.57 83.94"/><polygon class="cls-2" points="178.09 85.54 175.35 85.54 175.35 83.31 174.67 83.31 174.67 88.53 175.35 88.53 175.35 86.17 178.09 86.17 178.09 88.53 178.76 88.53 178.76 83.31 178.09 83.31 178.09 85.54"/><polygon class="cls-2" points="185.22 88.53 188.45 88.53 188.45 87.9 185.89 87.9 185.89 86.17 188.32 86.17 188.32 85.55 185.89 85.55 185.89 83.94 188.45 83.94 188.45 83.31 185.22 83.31 185.22 88.53"/><path class="cls-2" d="M203.67,83.31h-1.73v5.23h1.73a2.62,2.62,0,0,0,0-5.23Zm-1.05.63h1c1.18,0,1.82.7,1.82,2s-.65,2-1.82,2h-1Z"/><path class="cls-2" d="M213.76,83.31l-2,5.23h.72l.56-1.54h2l.56,1.54h.72l-2-5.23Zm1.08,3.07H213.3l.77-2.12Z"/><polygon class="cls-2" points="224.87 83.31 223.43 85.61 221.99 83.31 221.21 83.31 223.09 86.29 223.09 88.53 223.77 88.53 223.77 86.29 225.65 83.31 224.87 83.31"/></g></g></svg>