<?xml version="1.0" encoding="utf-8"?>
<!-- Generator: Adobe Illustrator 21.1.0, SVG Export Plug-In . SVG Version: 6.00 Build 0)  -->
<svg version="1.1" id="Layer_1" xmlns="http://www.w3.org/2000/svg" xmlns:xlink="http://www.w3.org/1999/xlink" x="0px" y="0px"
	 width="92px" height="46px" viewBox="0 0 92 46" style="enable-background:new 0 0 92 46;" xml:space="preserve">
<style type="text/css">
	.st0{fill:none;}
	.st1{fill:#00B0B3;}
</style>
<title>optus</title>
<g id="Layer_2">
	<path id="SLECTION" class="st0" d="M0,0h92v46H0V0z"/>
	<g id="OPTUS">
		<path class="st1" d="M65.5,25.2c0.1,0.9-0.6,1.8-1.6,1.9c-0.1,0-0.2,0-0.3,0c-0.9,0.1-1.8-0.6-1.8-1.5c0-0.1,0-0.2,0-0.4v-5
			c0-0.2,0-0.3-0.3-0.4c-0.6-0.1-1.2-0.1-1.8,0c-0.2,0.1-0.3,0.2-0.3,0.4v5.1c0,2.5,1.6,3.9,4.2,3.9s4.2-1.4,4.2-3.9v-5.1
			c0-0.2,0-0.3-0.3-0.4c-0.6-0.1-1.2-0.1-1.8,0c-0.2,0.1-0.3,0.2-0.3,0.4V25.2z M54,29.1c0.3,0,0.6,0,0.9-0.1
			c0.2-0.1,0.3-0.2,0.3-0.4v-6.7h2.4c0.2,0,0.3-0.1,0.4-0.3c0.1-0.5,0.1-1,0-1.5c0-0.2-0.2-0.3-0.4-0.3h-7.2c-0.2,0-0.3,0.1-0.4,0.3
			c-0.1,0.5-0.1,1,0,1.5c0,0.2,0.2,0.3,0.4,0.3h2.4v6.7c0,0.2,0,0.3,0.3,0.4C53.5,29.1,53.8,29.1,54,29.1 M34.8,19.6
			c-2.6-0.2-4.9,1.8-5.1,4.5c-0.2,2.6,1.8,4.9,4.5,5.1c0.2,0,0.4,0,0.6,0c2.6,0.2,4.9-1.8,5.1-4.5s-1.8-4.9-4.5-5.1
			C35.2,19.6,35,19.6,34.8,19.6 M34.8,27.1c-1.4,0.1-2.6-1-2.6-2.4c0-0.1,0-0.2,0-0.2c-0.1-1.5,1-2.7,2.5-2.8c1.5-0.1,2.7,1,2.8,2.5
			c0,0.1,0,0.2,0,0.3c0.1,1.4-1,2.6-2.4,2.7C34.9,27.1,34.8,27.1,34.8,27.1 M45.5,19.8h-3.8c-0.2,0-0.3,0.1-0.3,0.2c0,0,0,0,0,0.1
			v8.5c0,0.2,0,0.3,0.3,0.4c0.6,0.1,1.2,0.1,1.8,0c0.2-0.1,0.3-0.2,0.3-0.4v-2.4h1.8c2.4,0,3.7-1.3,3.7-3.2S47.9,19.8,45.5,19.8
			 M45.5,24.3h-1.8v-2.5h1.8c0.7-0.1,1.3,0.4,1.4,1.1c0.1,0.7-0.4,1.3-1.1,1.4C45.6,24.3,45.6,24.3,45.5,24.3 M69.3,28.1
			c1.2,0.7,2.7,1.1,4.1,1.1c2.4,0,4.1-1.2,4.1-3.1c0-1.5-1.1-2.3-3.1-2.6L74,23.3c-1.6-0.3-2-0.5-2-0.9s0.6-0.8,1.6-0.8
			c0.8,0,1.6,0.2,2.4,0.5c0.2,0.1,0.3,0.1,0.5,0c0.3-0.4,0.6-0.8,0.7-1.3c0.1-0.2,0-0.4-0.2-0.4c0,0,0,0,0,0
			c-1.1-0.5-2.2-0.7-3.4-0.7c-2.5,0-4,1.1-4,2.9c0,1.6,1.1,2.4,3.1,2.8l0.5,0.1c1.5,0.2,1.9,0.4,1.9,0.9s-0.6,0.9-1.6,0.9
			c-1.1-0.1-2.1-0.4-3-0.9c-0.1-0.1-0.3-0.1-0.5,0c0,0,0,0,0,0c-0.3,0.4-0.6,0.8-0.7,1.3C69.1,27.9,69.2,28.1,69.3,28.1"/>
	</g>
</g>
</svg>
