<?xml version="1.0" encoding="utf-8"?>
<!-- Generator: Adobe Illustrator 21.1.0, SVG Export Plug-In . SVG Version: 6.00 Build 0)  -->
<svg version="1.1" id="Layer_1" xmlns="http://www.w3.org/2000/svg" xmlns:xlink="http://www.w3.org/1999/xlink" x="0px" y="0px"
	 width="92px" height="46px" viewBox="0 0 92 46" style="enable-background:new 0 0 92 46;" xml:space="preserve">
<style type="text/css">
	.st0{fill:none;}
	.st1{fill:#00B6F1;}
	.st2{fill:#FFFFFF;}
</style>
<title>telstra</title>
<g>
	<g id="Layer_2">
		<path id="SLECTION" class="st0" d="M0,0h92v46H0V0z"/>
	</g>
	<g>
		<path class="st1" d="M71.5,21.6L70.7,26c-0.2,0.8-0.7,1-1.1,1h-3.5l1.5-8.1c-1.5-0.7-3-1.1-4.2-1.1c-1.1,0-2.1,0.3-2.7,1
			C60.3,19.4,60,20,60,20.8c0,2.3,1.8,5.5,4.9,8.1c2.8,2.3,5.8,3.6,8,3.6c1.1,0,2-0.3,2.6-1c0.5-0.5,0.6-1.2,0.6-2
			C76.2,27.3,74.4,24.1,71.5,21.6z"/>
		<g>
			<path class="st2" d="M65.2,13c-0.6,0-1,0.4-1.1,1l-0.5,2.7h4.4L66.1,27h3.5c0.5,0,1-0.2,1.1-1l1.6-9.4h3.2c0.6,0,1-0.4,1.1-1
				l0.5-2.7H65.2z"/>
		</g>
	</g>
</g>
</svg>
