<svg xmlns="http://www.w3.org/2000/svg" viewBox="0 0 92 46"><defs><style>.cls-1{fill:none;opacity:.63}.cls-2{fill:#fff}</style></defs><title>vodafone</title><g id="Layer_2" data-name="Layer 2"><path class="cls-1" d="M0 0h92v46H0z" id="SLECTION"/><g id="VODAFONE"><path class="cls-2" d="M62.43 12.63a6.73 6.73 0 1 0 6.73 6.73 6.73 6.73 0 0 0-6.73-6.73zm3.29 8.54a3.52 3.52 0 0 1-1 1.17 3.63 3.63 0 0 1-2.29.78h-.38a3.63 3.63 0 0 1-.58-.12 3.84 3.84 0 0 1-2.15-1.61 4.1 4.1 0 0 1-.49-1.08v-.09a4.46 4.46 0 0 1-.12-.66 4.71 4.71 0 0 1 0-.69v-.07a5.3 5.3 0 0 1 .15-1 5.84 5.84 0 0 1 1.89-3 6.3 6.3 0 0 1 1.84-1.08l.55-.19.34-.09a6.82 6.82 0 0 1 .85-.15 3.42 3.42 0 0 1 .85 0h.14A2.77 2.77 0 0 0 63.13 16v.09a4.43 4.43 0 0 1 1.42.55 3.21 3.21 0 0 1 .93.86l.05.08a3.18 3.18 0 0 1 .41.86 3.86 3.86 0 0 1 .16 1v.13a3.6 3.6 0 0 1-.38 1.59zM48.88 28.84l.86 2.27.83-2.27h1.08l-1.41 3.47h-1.02l-1.47-3.47h1.13zM53.48 32.4a1.82 1.82 0 1 1 1.82-1.82 1.73 1.73 0 0 1-1.82 1.82zm0-2.85c-.54 0-.8.47-.8 1s.26 1 .8 1 .8-.46.8-1-.28-1-.8-1zM59.18 27.42v4.83a7.21 7.21 0 0 1-1.48.15 1.75 1.75 0 0 1-2-1.84 1.71 1.71 0 0 1 1.75-1.8 2.18 2.18 0 0 1 .76.13v-1.47zm-1 2.29a1.41 1.41 0 0 0-.68-.16c-.52 0-.81.44-.81 1a1 1 0 0 0 1 1 2.71 2.71 0 0 0 .51 0zM59.62 30.65a1.87 1.87 0 0 1 2-1.9 4.38 4.38 0 0 1 1.49.27v3.29h-.85l-.07-.3a1.16 1.16 0 0 1-.94.39 1.61 1.61 0 0 1-1.63-1.75zm2.5-1a2.27 2.27 0 0 0-.55-.07 1 1 0 0 0-.94 1c0 .67.38 1 .8 1a.81.81 0 0 0 .69-.36zM64.93 27.34a3.88 3.88 0 0 1 .74.09v.83h-.54a.52.52 0 0 0-.39.1.41.41 0 0 0-.09.31v.21h.88v.84h-.88v2.64h-1v-3.81a1.22 1.22 0 0 1 .35-.92 1.27 1.27 0 0 1 .93-.29zM67.44 32.4a1.82 1.82 0 1 1 1.81-1.82 1.74 1.74 0 0 1-1.81 1.82zm0-2.85c-.54 0-.8.47-.8 1s.26 1 .8 1 .8-.46.8-1-.24-1-.8-1zM72.16 30.41a.7.7 0 0 0-.79-.78 3.31 3.31 0 0 0-.71.09v2.61h-1V29a5.38 5.38 0 0 1 1.67-.27c1.11 0 1.75.55 1.75 1.46v2.1h-1zM73.57 30.56a1.67 1.67 0 0 1 1.71-1.81 1.62 1.62 0 0 1 1.62 1.77v.39h-2.36c0 .49.37.76 1 .76a4.14 4.14 0 0 0 1.22-.19v.63a2.8 2.8 0 0 1-1.26.29 1.71 1.71 0 0 1-1.93-1.84zM76 30.2a.69.69 0 0 0-.74-.65.65.65 0 0 0-.72.65z"/></g></g></svg>