<svg xmlns="http://www.w3.org/2000/svg" width="300" height="250" viewBox="0 0 300 250"><g fill="#FFF"><path d="M96.9 232h-1.2l-2.3-8.5h1.4l1.6 6.6 1.8-6.6h1.2l1.8 6.6 1.6-6.6h1.4l-2.3 8.5h-1.2l-1.8-6.4h-.1l-1.9 6.4zM110.7 229.7h-3.2l-.8 2.3h-1.4l3.1-8.5h1.4l3.1 8.5h-1.4l-.8-2.3zm-2.9-1h2.6l-1.3-3.7-1.3 3.7zM116.3 232v-7.3h-2.6v-1.1h6.5v1.1h-2.6v7.3h-1.3zM122 227.8c0-2.7 1.5-4.4 3.9-4.4 1.9 0 3.4 1.2 3.6 2.9h-1.3c-.2-1.1-1.1-1.8-2.3-1.8-1.5 0-2.5 1.3-2.5 3.2 0 2 1 3.2 2.5 3.2 1.2 0 2-.6 2.3-1.6h1.3c-.3 1.7-1.6 2.8-3.6 2.8-2.4 0-3.9-1.6-3.9-4.3zM137.8 232v-3.7h-4.3v3.7h-1.3v-8.5h1.3v3.6h4.3v-3.6h1.3v8.5h-1.3zM148.4 232v-7.3h-2.6v-1.1h6.5v1.1h-2.6v7.3h-1.3zM160.5 232v-3.7h-4.3v3.7h-1.3v-8.5h1.3v3.6h4.3v-3.6h1.3v8.5h-1.3zM170.3 232H165v-8.5h5.4v1.1h-4.1v2.5h3.8v1.1h-3.8v2.6h4.1v1.2zM177.2 232v-8.5h5.3v1.1h-4v2.7h3.6v1.1h-3.6v3.5h-1.3zM185.2 232v-8.5h1.3v8.5h-1.3zM194.9 232h-5.2v-8.5h1.3v7.3h3.9v1.2zM204.9 232v-6.2l-2.5 6.2h-1l-2.6-6.2v6.2h-1.2v-8.5h1.5l2.7 6.7 2.7-6.7h1.5v8.5h-1.1z"/></g></svg>