<?xml version="1.0" encoding="utf-8"?>
<!-- Generator: Adobe Illustrator 21.1.0, SVG Export Plug-In . SVG Version: 6.00 Build 0)  -->
<svg version="1.1" id="Layer_1" xmlns="http://www.w3.org/2000/svg" xmlns:xlink="http://www.w3.org/1999/xlink" x="0px" y="0px"
	 width="46px" height="46px" viewBox="0 0 46 46" enable-background="new 0 0 46 46" xml:space="preserve">
<g>
	<g>
		<path fill="#FFFFFF" d="M28.4,21.6c0-2.5,2-3.7,2.1-3.7c-1.2-1.7-3-1.9-3.6-1.9c-1.5-0.2-3,0.9-3.8,0.9s-2-0.9-3.2-0.9
			c-1.7,0-3.2,1-4.1,2.5c-1.7,3-0.4,7.5,1.2,9.9c0.8,1.2,1.8,2.5,3.1,2.5c1.2,0,1.7-0.8,3.2-0.8s1.9,0.8,3.2,0.8
			c1.3,0,2.2-1.2,3-2.4c0.9-1.4,1.3-2.7,1.4-2.8C31,25.6,28.5,24.6,28.4,21.6"/>
	</g>
	<g>
		<path fill="#FFFFFF" d="M26,14.3c0.7-0.8,1.1-2,1-3.1c-1,0-2.2,0.7-2.9,1.5c-0.6,0.7-1.2,1.9-1,3C24.1,15.8,25.3,15.1,26,14.3"/>
	</g>
</g>
</svg>
