<svg xmlns="http://www.w3.org/2000/svg" viewBox="0 0 300 250"><defs><style>.cls-1{fill:none;opacity:0.63;}.cls-2{fill:#fff;}</style></defs><title>cta_1</title><g id="Layer_2" data-name="Layer 2"><g id="_300x250" data-name="300x250"><rect class="cls-1" width="300" height="250"/><path class="cls-2" d="M108.4,230.52h-1l-1.8-6.68h1.08l1.24,5.23h0l1.41-5.23h1l1.42,5.23h0l1.24-5.23h1.08l-1.81,6.68h-1l-1.44-5h0Z"/><path class="cls-2" d="M119.3,228.71h-2.55l-.61,1.81h-1.08l2.41-6.68h1.12l2.41,6.68h-1.1Zm-2.28-.83h2l-1-2.93h0Z"/><path class="cls-2" d="M123.72,230.52v-5.79h-2v-.89h5.13v.89h-2v5.79Z"/><path class="cls-2" d="M128.23,227.17c0-2.12,1.19-3.45,3.06-3.45a2.68,2.68,0,0,1,2.83,2.32h-1a1.78,1.78,0,0,0-1.81-1.42c-1.21,0-2,1-2,2.54s.78,2.55,2,2.55a1.72,1.72,0,0,0,1.8-1.28h1a2.63,2.63,0,0,1-2.84,2.19C129.42,230.63,128.23,229.3,128.23,227.17Z"/><path class="cls-2" d="M140.77,230.52v-3h-3.43v3h-1v-6.68h1v2.82h3.43v-2.82h1v6.68Z"/><path class="cls-2" d="M149.08,230.52v-5.79h-2v-.89h5.13v.89h-2v5.79Z"/><path class="cls-2" d="M158.7,230.52v-3h-3.43v3h-1v-6.68h1v2.82h3.43v-2.82h1v6.68Z"/><path class="cls-2" d="M166.43,230.52h-4.24v-6.68h4.24v.89h-3.2v2h3v.86h-3v2.07h3.2Z"/><path class="cls-2" d="M171.89,230.52v-6.68h4.17v.89h-3.13v2.12h2.87v.88h-2.87v2.8Z"/><path class="cls-2" d="M178.19,230.52v-6.68h1v6.68Z"/><path class="cls-2" d="M185.84,230.52h-4.15v-6.68h1v5.78h3.11Z"/><path class="cls-2" d="M193.77,230.52V225.6h0l-2,4.87H191l-2-4.87h0v4.92H188v-6.68h1.2l2.16,5.27h0l2.16-5.27h1.2v6.68Z"/><path class="cls-2" d="M200.1,217a3.48,3.48,0,0,1,3.48,3.48v13.43a3.48,3.48,0,0,1-3.48,3.48H100.25a3.48,3.48,0,0,1-3.48-3.48V220.46a3.48,3.48,0,0,1,3.48-3.48H200.1m0-.47H100.25a4,4,0,0,0-4,4v13.43a4,4,0,0,0,4,4H200.1a4,4,0,0,0,4-4V220.46a4,4,0,0,0-4-4Z"/></g></g></svg>