<svg xmlns="http://www.w3.org/2000/svg" viewBox="0 0 300 250"><defs><style>.cls-1{fill:#fff}.cls-2{fill:none}</style></defs><title>cta_3</title><g id="Layer_2" data-name="Layer 2"><g id="_300x250" data-name="300x250"><path class="cls-1" d="M97.14 196.73H95.9l-2.28-8.46H95l1.56 6.62 1.79-6.62h1.25l1.79 6.62 1.56-6.62h1.37l-2.29 8.46h-1.24L99 190.35zM110.93 194.44h-3.23l-.77 2.29h-1.37l3.05-8.46H110l3.05 8.46h-1.35zm-2.93-1.05h2.55l-1.26-3.71zM116.52 196.73v-7.33h-2.59v-1.13h6.49v1.13h-2.58v7.32zM122.23 192.5c0-2.68 1.51-4.37 3.87-4.37a3.4 3.4 0 0 1 3.59 2.94h-1.3a2.25 2.25 0 0 0-2.29-1.79c-1.54 0-2.53 1.26-2.53 3.22s1 3.22 2.54 3.22a2.17 2.17 0 0 0 2.28-1.62h1.31a3.33 3.33 0 0 1-3.59 2.77c-2.38 0-3.88-1.68-3.88-4.37zM138.1 196.73V193h-4.34v3.74h-1.31v-8.46h1.31v3.57h4.34v-3.57h1.31v8.46zM148.61 196.73v-7.33H146v-1.13h6.49v1.13h-2.58v7.32zM160.79 196.73V193h-4.34v3.74h-1.31v-8.46h1.31v3.57h4.34v-3.57h1.31v8.46zM170.58 196.73h-5.37v-8.46h5.37v1.13h-4.05v2.47h3.84V193h-3.84v2.63h4.05zM177.48 196.73v-8.46h5.28v1.13h-4v2.68h3.63v1.11h-3.63v3.54zM185.46 196.73v-8.46h1.31v8.46zM195.14 196.73h-5.25v-8.46h1.31v7.32h3.94zM205.18 196.73v-6.22l-2.55 6.16h-1l-2.55-6.16v6.22h-1.2v-8.46h1.52l2.74 6.67 2.73-6.67h1.52v8.46z"/><path class="cls-1" d="M213.18 179.6a4.4 4.4 0 0 1 4.4 4.4v17a4.4 4.4 0 0 1-4.4 4.4H86.82a4.4 4.4 0 0 1-4.4-4.4v-17a4.4 4.4 0 0 1 4.4-4.4h126.36m0-.6H86.82a5 5 0 0 0-5 5v17a5 5 0 0 0 5 5h126.36a5 5 0 0 0 5-5v-17a5 5 0 0 0-5-5z"/><path class="cls-2" d="M0 0h300v250H0z"/></g></g></svg>