<svg xmlns="http://www.w3.org/2000/svg" viewBox="0 0 300 250"><defs><style>.cls-1{fill:none;opacity:0.63;}.cls-2{fill:#fff;}</style></defs><title>take-on_1</title><g id="Layer_2" data-name="Layer 2"><g id="_300x250" data-name="300x250"><rect class="cls-1" width="300" height="250"/><path class="cls-2" d="M57.2,135.06H54.92v6.88H57.2c2,0,3.27-1.29,3.27-3.44S59.24,135.06,57.2,135.06Zm-1.39.83h1.35c1.55,0,2.4.93,2.4,2.61s-.85,2.6-2.4,2.6H55.81Z"/><path class="cls-2" d="M71.56,135c-1.91,0-3.14,1.39-3.14,3.55S69.65,142,71.56,142s3.14-1.39,3.14-3.54S73.47,135,71.56,135Zm2.23,3.55c0,1.66-.86,2.7-2.23,2.7s-2.23-1-2.23-2.7.85-2.7,2.23-2.7S73.79,136.83,73.79,138.5Z"/><polygon class="cls-2" points="86.25 140.67 83.87 135.06 82.93 135.06 82.93 141.94 83.78 141.94 83.78 136.96 85.85 141.83 85.88 141.91 86.6 141.91 88.71 136.96 88.71 141.94 89.56 141.94 89.56 135.06 88.62 135.06 86.25 140.67"/><rect class="cls-2" x="98.06" y="135.06" width="0.89" height="6.88"/><polygon class="cls-2" points="111.97 140.34 108.3 135.11 108.26 135.06 107.44 135.06 107.44 141.94 108.33 141.94 108.33 136.65 112.05 141.94 112.86 141.94 112.86 135.06 111.97 135.06 111.97 140.34"/><path class="cls-2" d="M123.35,135.06l-2.58,6.88h.95l.73-2h2.59l.73,2h.95l-2.57-6.88Zm1.42,4h-2l1-2.79Z"/><polygon class="cls-2" points="133.28 135.89 135.46 135.89 135.46 141.94 136.36 141.94 136.36 135.89 138.54 135.89 138.54 135.06 133.28 135.06 133.28 135.89"/><polygon class="cls-2" points="146.59 141.94 150.85 141.94 150.85 141.1 147.48 141.1 147.48 138.83 150.68 138.83 150.68 138 147.48 138 147.48 135.89 150.85 135.89 150.85 135.06 146.59 135.06 146.59 141.94"/><polygon class="cls-2" points="168.17 135.89 170.35 135.89 170.35 141.94 171.24 141.94 171.24 135.89 173.43 135.89 173.43 135.06 168.17 135.06 168.17 135.89"/><polygon class="cls-2" points="185.97 138 182.36 138 182.36 135.06 181.47 135.06 181.47 141.94 182.36 141.94 182.36 138.84 185.97 138.84 185.97 141.94 186.86 141.94 186.86 135.06 185.97 135.06 185.97 138"/><polygon class="cls-2" points="195.35 141.94 199.61 141.94 199.61 141.1 196.24 141.1 196.24 138.83 199.44 138.83 199.44 138 196.24 138 196.24 135.89 199.61 135.89 199.61 135.06 195.35 135.06 195.35 141.94"/><path class="cls-2" d="M219.66,135.06h-2.28v6.88h2.28c2,0,3.27-1.29,3.27-3.44S221.7,135.06,219.66,135.06Zm-1.39.83h1.35c1.55,0,2.4.93,2.4,2.61s-.85,2.6-2.4,2.6h-1.35Z"/><path class="cls-2" d="M232.94,135.06l-2.58,6.88h.95l.73-2h2.59l.73,2h.95l-2.57-6.88Zm1.42,4h-2l1-2.79Z"/><polygon class="cls-2" points="247.57 135.06 245.67 138.1 243.78 135.06 242.75 135.06 245.22 138.98 245.22 141.94 246.12 141.94 246.12 138.98 248.6 135.06 247.57 135.06"/></g></g></svg>